<mxfile host="app.diagrams.net" agent="Mozilla/5.0 (Windows NT 10.0; Win64; x64) AppleWebKit/537.36 (KHTML, like Gecko) Chrome/132.0.0.0 Safari/537.36" version="26.0.11">
  <diagram name="data-product" id="gNhKzNj9DIzEtffBF-eM">
    <mxGraphModel grid="1" page="1" gridSize="10" guides="1" tooltips="1" connect="1" arrows="1" fold="1" pageScale="1" pageWidth="850" pageHeight="1100" math="0" shadow="0">
      <root>
        <mxCell id="0" />
        <mxCell id="1" parent="0" />
        <mxCell id="wraCza7Ob2I8K3LCxafz-1" value="" style="shape=hexagon;perimeter=hexagonPerimeter2;whiteSpace=wrap;html=1;fixedSize=1;hachureGap=4;fontFamily=Outfit;fontSource=https%3A%2F%2Ffonts.googleapis.com%2Fcss%3Ffamily%3DOutfit;fontSize=20;size=160;fillColor=#FF9933;sketch=1;curveFitting=1;jiggle=2;fillStyle=solid;" vertex="1" parent="1">
          <mxGeometry x="40" y="50" width="700" height="630" as="geometry" />
        </mxCell>
        <mxCell id="wraCza7Ob2I8K3LCxafz-2" value="" style="ellipse;whiteSpace=wrap;html=1;aspect=fixed;fillColor=#009900;fontFamily=Outfit;fontSource=https%3A%2F%2Ffonts.googleapis.com%2Fcss%3Ffamily%3DOutfit;sketch=1;curveFitting=1;jiggle=2;fillStyle=solid;" vertex="1" parent="1">
          <mxGeometry x="180" y="160" width="420" height="420" as="geometry" />
        </mxCell>
        <mxCell id="wraCza7Ob2I8K3LCxafz-3" value="&lt;span style=&quot;font-size: 31px;&quot;&gt;Applications&lt;/span&gt;" style="text;html=1;strokeColor=none;fillColor=none;align=center;verticalAlign=middle;whiteSpace=wrap;rounded=0;fontSize=20;fontFamily=Outfit;fontSource=https%3A%2F%2Ffonts.googleapis.com%2Fcss%3Ffamily%3DOutfit;" vertex="1" parent="1">
          <mxGeometry x="290" y="180" width="210" height="100" as="geometry" />
        </mxCell>
        <mxCell id="wraCza7Ob2I8K3LCxafz-4" value="&lt;span style=&quot;font-size: 31px;&quot;&gt;Infrastructure&lt;/span&gt;" style="text;html=1;strokeColor=none;fillColor=none;align=center;verticalAlign=middle;whiteSpace=wrap;rounded=0;fontSize=20;fontFamily=Outfit;fontSource=https%3A%2F%2Ffonts.googleapis.com%2Fcss%3Ffamily%3DOutfit;" vertex="1" parent="1">
          <mxGeometry x="286.25" y="460" width="210" height="100" as="geometry" />
        </mxCell>
        <mxCell id="wraCza7Ob2I8K3LCxafz-5" value="" style="endArrow=none;html=1;rounded=0;exitX=0;exitY=0.5;exitDx=0;exitDy=0;entryX=1;entryY=0.5;entryDx=0;entryDy=0;fontFamily=Outfit;fontSource=https%3A%2F%2Ffonts.googleapis.com%2Fcss%3Ffamily%3DOutfit;" edge="1" parent="1" source="wraCza7Ob2I8K3LCxafz-2" target="wraCza7Ob2I8K3LCxafz-2">
          <mxGeometry width="50" height="50" relative="1" as="geometry">
            <mxPoint x="432.5" y="465" as="sourcePoint" />
            <mxPoint x="482.5" y="415" as="targetPoint" />
          </mxGeometry>
        </mxCell>
        <mxCell id="wraCza7Ob2I8K3LCxafz-6" value="" style="ellipse;whiteSpace=wrap;html=1;aspect=fixed;fillColor=#0066CC;fontFamily=Outfit;fontSource=https%3A%2F%2Ffonts.googleapis.com%2Fcss%3Ffamily%3DOutfit;sketch=1;curveFitting=1;jiggle=2;fillStyle=solid;" vertex="1" parent="1">
          <mxGeometry x="283.75" y="263.75" width="212.5" height="212.5" as="geometry" />
        </mxCell>
        <mxCell id="wraCza7Ob2I8K3LCxafz-7" value="&lt;font style=&quot;font-size: 31px;&quot;&gt;Data &lt;br&gt;&amp;amp; Metadata&lt;/font&gt;" style="text;html=1;strokeColor=none;fillColor=none;align=center;verticalAlign=middle;whiteSpace=wrap;rounded=0;fontSize=20;fontFamily=Outfit;fontStyle=1;fontSource=https%3A%2F%2Ffonts.googleapis.com%2Fcss%3Ffamily%3DOutfit;" vertex="1" parent="1">
          <mxGeometry x="326.25" y="320" width="127.5" height="100" as="geometry" />
        </mxCell>
        <mxCell id="wraCza7Ob2I8K3LCxafz-8" value="&lt;span&gt;Interfaces&lt;/span&gt;" style="text;html=1;strokeColor=none;fillColor=none;align=center;verticalAlign=middle;whiteSpace=wrap;rounded=0;fontSize=24;fontFamily=Outfit;rotation=60;fontColor=#000000;fontSource=https%3A%2F%2Ffonts.googleapis.com%2Fcss%3Ffamily%3DOutfit;fontStyle=0" vertex="1" parent="1">
          <mxGeometry x="510" y="180" width="210" height="100" as="geometry" />
        </mxCell>
        <mxCell id="wraCza7Ob2I8K3LCxafz-9" value="&lt;span&gt;Interfaces&lt;/span&gt;" style="text;html=1;strokeColor=none;fillColor=none;align=center;verticalAlign=middle;whiteSpace=wrap;rounded=0;fontSize=24;fontFamily=Outfit;rotation=-60;fontColor=#000000;fontSource=https%3A%2F%2Ffonts.googleapis.com%2Fcss%3Ffamily%3DOutfit;fontStyle=0" vertex="1" parent="1">
          <mxGeometry x="60" y="180" width="210" height="100" as="geometry" />
        </mxCell>
        <mxCell id="wraCza7Ob2I8K3LCxafz-10" value="&lt;span&gt;Interfaces&lt;/span&gt;" style="text;html=1;strokeColor=none;fillColor=none;align=center;verticalAlign=middle;whiteSpace=wrap;rounded=0;fontSize=24;fontFamily=Outfit;rotation=0;fontColor=#000000;fontSource=https%3A%2F%2Ffonts.googleapis.com%2Fcss%3Ffamily%3DOutfit;fontStyle=0" vertex="1" parent="1">
          <mxGeometry x="290" y="50" width="210" height="100" as="geometry" />
        </mxCell>
        <mxCell id="wraCza7Ob2I8K3LCxafz-11" value="&lt;span&gt;Interfaces&lt;/span&gt;" style="text;html=1;strokeColor=none;fillColor=none;align=center;verticalAlign=middle;whiteSpace=wrap;rounded=0;fontSize=24;fontFamily=Outfit;rotation=120;fontColor=#000000;fontSource=https%3A%2F%2Ffonts.googleapis.com%2Fcss%3Ffamily%3DOutfit;fontStyle=0" vertex="1" parent="1">
          <mxGeometry x="510" y="440" width="210" height="100" as="geometry" />
        </mxCell>
        <mxCell id="wraCza7Ob2I8K3LCxafz-12" value="&lt;span&gt;Interfaces&lt;/span&gt;" style="text;html=1;strokeColor=none;fillColor=none;align=center;verticalAlign=middle;whiteSpace=wrap;rounded=0;fontSize=24;fontFamily=Outfit;rotation=-120;fontColor=#000000;fontSource=https%3A%2F%2Ffonts.googleapis.com%2Fcss%3Ffamily%3DOutfit;fontStyle=0" vertex="1" parent="1">
          <mxGeometry x="60" y="450" width="210" height="100" as="geometry" />
        </mxCell>
        <mxCell id="wraCza7Ob2I8K3LCxafz-13" value="&lt;span&gt;Interfaces&lt;/span&gt;" style="text;html=1;strokeColor=none;fillColor=none;align=center;verticalAlign=middle;whiteSpace=wrap;rounded=0;fontSize=24;fontFamily=Outfit;rotation=-180;fontColor=#000000;fontSource=https%3A%2F%2Ffonts.googleapis.com%2Fcss%3Ffamily%3DOutfit;fontStyle=0" vertex="1" parent="1">
          <mxGeometry x="290" y="580" width="210" height="100" as="geometry" />
        </mxCell>
      </root>
    </mxGraphModel>
  </diagram>
</mxfile>
